<?xml version="1.0" encoding="utf-8"?>
<!-- Generator: Adobe Illustrator 19.1.0, SVG Export Plug-In . SVG Version: 6.00 Build 0)  -->
<!DOCTYPE svg PUBLIC "-//W3C//DTD SVG 1.1//EN" "http://www.w3.org/Graphics/SVG/1.1/DTD/svg11.dtd">
<svg version="1.1" xmlns="http://www.w3.org/2000/svg" xmlns:xlink="http://www.w3.org/1999/xlink" x="0px" y="0px"
	 viewBox="0 0 362 85" style="enable-background:new 0 0 362 85;" xml:space="preserve">
<style type="text/css">
	.st0{fill:#00A851;}
</style>
<g id="Laag_1">
</g>
<g id="Layer_1">
	<g>
		<g>
			<path class="st0" d="M243.8,23.5l-6.2,18h-3.7l-6.2-18h3.3l4.7,13.7l4.7-13.7H243.8z"/>
			<path class="st0" d="M248.7,21.7h0.4v19.5h-3.2V22L248.7,21.7z"/>
			<path class="st0" d="M263.2,41.5c-1,0-2.1-0.3-3.1-1.5c-0.6,0.4-1,0.8-1.6,1c-0.6,0.3-1.3,0.4-2.2,0.4c-1,0-2.1-0.2-3-0.8
				c-0.9-0.6-1.6-1.8-1.6-3.6c0-1.2,0.3-2.2,1.1-2.9c0.8-0.7,2-1,3.9-1c0.8,0,1.6,0,2.9,0.1v-0.7c0-1-0.3-1.6-0.8-2.1
				c-0.5-0.4-1.2-0.6-1.9-0.6c-1.2,0-2.6,0.4-3.8,1l-0.7-2.8c1.5-0.7,3.3-1.2,5.1-1.2c1.4,0,2.7,0.3,3.7,1c1,0.7,1.6,1.9,1.6,3.6
				v5.2c0,0.7,0.2,1.1,0.6,1.4c0.4,0.3,0.9,0.5,1.5,0.6L263.2,41.5z M259.4,35.6c-1.5,0-2.6,0-3.4,0.2s-1.2,0.6-1.2,1.4
				c0,1.1,0.8,1.8,2,1.8c0.4,0,1.1-0.1,1.6-0.4s1-1,1-2.1V35.6z"/>
			<path class="st0" d="M277.1,41.5c-1,0-2.1-0.3-3.1-1.5c-0.6,0.4-1,0.8-1.6,1c-0.6,0.3-1.3,0.4-2.2,0.4c-1,0-2.1-0.2-3-0.8
				c-0.9-0.6-1.6-1.8-1.6-3.6c0-1.2,0.3-2.2,1.1-2.9c0.8-0.7,2-1,3.9-1c0.8,0,1.6,0,2.9,0.1v-0.7c0-1-0.3-1.6-0.8-2.1
				c-0.5-0.4-1.2-0.6-1.9-0.6c-1.2,0-2.6,0.4-3.8,1l-0.7-2.8c1.5-0.7,3.3-1.2,5.1-1.2c1.4,0,2.7,0.3,3.7,1c1,0.7,1.6,1.9,1.6,3.6
				v5.2c0,0.7,0.2,1.1,0.6,1.4c0.4,0.3,0.9,0.5,1.5,0.6L277.1,41.5z M273.3,35.6c-1.5,0-2.6,0-3.4,0.2s-1.2,0.6-1.2,1.4
				c0,1.1,0.8,1.8,2,1.8c0.4,0,1.1-0.1,1.6-0.4s1-1,1-2.1V35.6z"/>
			<path class="st0" d="M280.4,27.3h2.7l0.3,1.1c1.3-0.9,2.9-1.4,4.5-1.4c1.3,0,2.6,0.4,3.5,1.2c0.9,0.8,1.5,2,1.5,3.8v9.3h-3.2
				v-8.4c0-1-0.4-1.8-1-2.2c-0.6-0.5-1.4-0.6-2.2-0.6c-1.1,0-2.2,0.3-3,0.9v10.4h-3.2V27.3z"/>
			<path class="st0" d="M308,41.3h-2.4l-0.6-1.1c-1.1,0.8-2.2,1.3-3.8,1.3c-2,0-3.5-0.8-4.5-2c-1-1.2-1.5-2.9-1.5-4.6
				c0-2.6,0.8-4.6,2.1-5.9c1.3-1.3,3.2-1.9,5.3-1.9c0.6,0,1.3,0,2.1,0.1V22l2.7-0.3h0.5V41.3z M304.9,30.2c-0.8-0.2-1.6-0.3-2.2-0.3
				c-1.2,0-2.2,0.4-2.9,1.1c-0.7,0.7-1.1,1.8-1.1,3.3c0,1.1,0.3,2.1,0.9,2.9c0.6,0.8,1.4,1.3,2.5,1.3c1,0,2-0.3,2.9-0.9V30.2z"/>
			<path class="st0" d="M321.8,37.6v3.1c-1.2,0.6-2.8,0.8-4,0.8c-1.9,0-3.7-0.6-5.1-1.8c-1.3-1.2-2.2-3-2.2-5.5c0-2.4,0.8-4.2,2-5.4
				c1.2-1.2,2.8-1.9,4.3-1.9c0.4,0,1.2,0.1,2.1,0.3c0.8,0.3,1.7,0.8,2.4,1.8c0.7,0.9,1.1,2.3,1.1,4.2v2.1H314
				c0.3,1.1,0.8,1.9,1.6,2.4c0.7,0.5,1.6,0.7,2.5,0.7c1.2,0,2.4-0.3,3.5-0.9L321.8,37.6z M319.6,33c-0.1-1-0.4-1.8-0.9-2.2
				c-0.5-0.5-1.1-0.7-1.7-0.7c-0.6,0-1.3,0.2-1.8,0.7c-0.6,0.5-1,1.2-1.2,2.2H319.6z"/>
			<path class="st0" d="M333.3,30.8c-0.8-0.5-1.6-0.7-2.4-0.7c-1,0-2,0.4-2.8,1v10.2H325v-14h2.7l0.3,1.1c1-0.8,2.2-1.4,3.6-1.4
				c0.4,0,0.9,0,1.4,0.1c0.5,0.1,1,0.2,1.4,0.4L333.3,30.8z"/>
			<path class="st0" d="M346.3,37.6v3.1c-1.2,0.6-2.8,0.8-4,0.8c-1.9,0-3.7-0.6-5.1-1.8c-1.3-1.2-2.2-3-2.2-5.5c0-2.4,0.8-4.2,2-5.4
				c1.2-1.2,2.8-1.9,4.3-1.9c0.4,0,1.2,0.1,2.1,0.3c0.8,0.3,1.7,0.8,2.4,1.8c0.7,0.9,1.1,2.3,1.1,4.2v2.1h-8.5
				c0.3,1.1,0.8,1.9,1.6,2.4c0.7,0.5,1.6,0.7,2.5,0.7c1.2,0,2.4-0.3,3.5-0.9L346.3,37.6z M344.1,33c-0.1-1-0.4-1.8-0.9-2.2
				c-0.5-0.5-1.1-0.7-1.7-0.7c-0.6,0-1.3,0.2-1.8,0.7c-0.6,0.5-1,1.2-1.2,2.2H344.1z"/>
			<path class="st0" d="M349.5,27.3h2.7l0.3,1.1c1.3-0.9,2.9-1.4,4.5-1.4c1.3,0,2.6,0.4,3.5,1.2c0.9,0.8,1.5,2,1.5,3.8v9.3h-3.2
				v-8.4c0-1-0.4-1.8-1-2.2c-0.6-0.5-1.4-0.6-2.2-0.6c-1.1,0-2.2,0.3-3,0.9v10.4h-3.2V27.3z"/>
			<path class="st0" d="M232.5,49.8c0-0.4,0.4-0.8,0.8-0.8c0.4,0,0.8,0.4,0.8,0.8c0,0.4-0.4,0.8-0.8,0.8
				C232.9,50.6,232.5,50.2,232.5,49.8z M232.8,51.9h1.2v7.8h-1.2V51.9z"/>
			<path class="st0" d="M235.9,58.4L235.9,58.4c0.5,0.2,1.3,0.4,1.8,0.4c0.8,0,2-0.4,2-1.3c0-0.4-0.2-0.7-0.6-0.9
				c-0.5-0.3-1.3-0.5-2-0.9c-0.8-0.4-1.2-1.1-1.2-1.9c0-1.5,1.2-2,2.6-2c0.6,0,1.1,0.1,1.6,0.2v1l0,0c-0.4-0.1-1.2-0.2-1.7-0.2
				c-0.7,0-1.3,0.2-1.3,0.9c0,0.4,0.2,0.7,0.6,0.9c0.5,0.3,1.4,0.6,2.2,1c0.8,0.4,1,0.9,1,1.7c0,0.8-0.4,1.5-1,1.9
				c-0.6,0.4-1.4,0.6-2.2,0.6c-0.7,0-1.3-0.1-1.8-0.4V58.4z"/>
			<path class="st0" d="M246.6,55.8c0-1.1,0.4-2.1,1-2.9c0.6-0.7,1.5-1.2,2.6-1.2c1.1,0,2,0.5,2.6,1.2c0.6,0.7,1,1.7,1,2.8
				c0,1.1-0.4,2.1-1,2.9c-0.6,0.7-1.5,1.2-2.6,1.2c-1.1,0-1.9-0.5-2.6-1.2C246.9,57.9,246.6,56.9,246.6,55.8z M247.7,55.8
				c0,0.8,0.2,1.6,0.6,2.1c0.4,0.5,1,0.9,1.8,0.9c0.8,0,1.4-0.3,1.8-0.8s0.6-1.3,0.6-2.1c0-0.8-0.2-1.6-0.6-2.1s-1-0.9-1.8-0.9
				c-0.8,0-1.4,0.3-1.8,0.8C248,54.2,247.7,54.9,247.7,55.8z"/>
			<path class="st0" d="M255.5,51.9h0.8l0.2,0.7c0.3-0.2,0.7-0.4,1.1-0.6s0.8-0.3,1.2-0.3c0.7,0,1.4,0.2,1.9,0.7
				c0.5,0.5,0.8,1.2,0.8,2.3v5h-1.2v-4.9c0-0.7-0.2-1.2-0.5-1.5c-0.3-0.3-0.7-0.4-1.2-0.4c-0.4,0-0.7,0.1-1.1,0.2s-0.7,0.3-1,0.5
				v6.1h-1.2V51.9z"/>
			<path class="st0" d="M269.8,59.7h-0.7l-0.2-0.7c-0.6,0.5-1.3,0.8-2.2,0.8c-1,0-1.9-0.5-2.4-1.2c-0.6-0.7-0.9-1.8-0.9-2.9
				c0-1.1,0.3-2.1,1-2.8s1.6-1.1,3-1.1c0.5,0,1,0.1,1.4,0.2V49l1.1-0.2h0.1V59.7z M268.7,53.1c-0.5-0.2-1-0.3-1.5-0.3
				c-0.8,0-1.4,0.2-1.9,0.7c-0.5,0.5-0.8,1.2-0.8,2.2c0,0.8,0.2,1.5,0.6,2.1c0.4,0.5,1,0.9,1.8,0.9c0.8,0,1.4-0.3,1.8-0.8V53.1z"/>
			<path class="st0" d="M277.6,56.1h-4.8c0.1,1.6,1.1,2.7,2.6,2.7c0.7,0,1.4-0.2,2.1-0.6l0,0v1.1c-0.8,0.4-1.5,0.6-2.2,0.6
				c-2.3,0-3.6-1.6-3.6-4.1c0-2.3,1-3.9,3.3-3.9c2,0,2.7,1.5,2.7,3.3V56.1z M276.5,55c0-1.2-0.3-2.2-1.5-2.2c-1.2,0-1.9,1-2.1,2.2
				H276.5z"/>
			<path class="st0" d="M279.4,51.9h0.8l0.3,0.9c0.6-0.7,1.2-1,1.9-1c0.2,0,0.4,0,0.7,0.1c0.2,0,0.5,0.1,0.6,0.2l-0.4,1
				c-0.3-0.1-0.7-0.2-1.1-0.2c-0.7,0-1.2,0.4-1.6,1v5.8h-1.2V51.9z"/>
			<path class="st0" d="M285,51.9h0.8l0.2,0.7c0.3-0.2,0.7-0.4,1.1-0.6s0.8-0.3,1.2-0.3c0.7,0,1.4,0.2,1.9,0.7
				c0.5,0.5,0.8,1.2,0.8,2.3v5h-1.2v-4.9c0-0.7-0.2-1.2-0.5-1.5c-0.3-0.3-0.7-0.4-1.2-0.4c-0.4,0-0.7,0.1-1.1,0.2s-0.7,0.3-1,0.5
				v6.1H285V51.9z"/>
			<path class="st0" d="M298.8,56.1H294c0.1,1.6,1.1,2.7,2.6,2.7c0.7,0,1.4-0.2,2.1-0.6l0,0v1.1c-0.8,0.4-1.5,0.6-2.2,0.6
				c-2.3,0-3.6-1.6-3.6-4.1c0-2.3,1-3.9,3.3-3.9c2,0,2.7,1.5,2.7,3.3V56.1z M297.7,55c0-1.2-0.3-2.2-1.5-2.2c-1.2,0-1.9,1-2.1,2.2
				H297.7z"/>
			<path class="st0" d="M306.2,59.7H305v-4.9c0-0.7-0.1-1.2-0.4-1.5c-0.3-0.3-0.6-0.4-1-0.4c-0.7,0-1.3,0.3-1.8,0.7v6.1h-1.2v-7.8
				h0.7l0.3,0.7c0.5-0.3,0.9-0.5,1.2-0.7c0.4-0.1,0.7-0.2,1-0.2c0.7,0,1.3,0.2,1.8,0.8c0.3-0.2,0.7-0.4,1.1-0.6s0.8-0.3,1.2-0.3
				c0.7,0,1.4,0.2,1.9,0.7c0.5,0.5,0.8,1.2,0.8,2.3v5h-1.2v-4.9c0-0.7-0.2-1.2-0.5-1.5c-0.3-0.3-0.7-0.4-1.2-0.4
				c-0.6,0-1.2,0.3-1.8,0.6c0.1,0.4,0.2,0.8,0.2,1.3V59.7z"/>
			<path class="st0" d="M318.3,56.1h-4.8c0.1,1.6,1.1,2.7,2.6,2.7c0.7,0,1.4-0.2,2.1-0.6l0,0v1.1c-0.8,0.4-1.5,0.6-2.2,0.6
				c-2.3,0-3.6-1.6-3.6-4.1c0-2.3,1-3.9,3.3-3.9c2,0,2.7,1.5,2.7,3.3V56.1z M317.2,55c0-1.2-0.3-2.2-1.5-2.2c-1.2,0-1.9,1-2.1,2.2
				H317.2z"/>
			<path class="st0" d="M320.1,51.9h0.8l0.2,0.7c0.3-0.2,0.7-0.4,1.1-0.6s0.8-0.3,1.2-0.3c0.7,0,1.4,0.2,1.9,0.7
				c0.5,0.5,0.8,1.2,0.8,2.3v5H325v-4.9c0-0.7-0.2-1.2-0.5-1.5c-0.3-0.3-0.7-0.4-1.2-0.4c-0.4,0-0.7,0.1-1.1,0.2s-0.7,0.3-1,0.5v6.1
				h-1.2V51.9z"/>
		</g>
		
			<rect x="168.5" y="42.3" transform="matrix(0.322 0.9467 -0.9467 0.322 184.8705 -173.1086)" class="st0" width="89.7" height="0.4"/>
		<g>
			<path class="st0" d="M199.2,42.3c-2.1-1.6-3.1,0-4.4-0.1c-1.1-0.1-2.1-1.9-3-1.5c-1.6,0.8,0.7,3.8,1.7,4.4c0.9,0.5,2,1,2.3,1.1
				c1.3,0.6,1.8,1.5,2,3c0,0.3,0,1.1-0.1,1.4c-0.6,2.5-5.1,4.9-7.6,3.1c-1.2-0.8-2.3-1.9-2.7-3.8c-0.7-3.3-3.1-5.8-3.9-9.1
				c-0.5-2-0.8-4.1-1.3-6.1c-0.5-2.1-1.1-4.1-1.5-6c-0.4-1.7-1.2-4.4-1.8-6c-2.4-6.4-3.6-5.9-3.6-5.9s0.9,1.8,4.1,17.4
				c0.1,0.6,1.3,7.5,2.2,9.8c0.3,0.8,0.8,2.6,1.2,3.3c1,2.2,3.8,5.6,3.9,8.7c0.1,1.8,0.3,3.2,0.3,4.6c0,0.4,0.2,2,0.5,2.7
				c0.7,1.9,6,7.9,11.7,7.9v-4.6c-5.7,0-11-3.2-11.1-3.5c-0.1-0.2,0.3-2.3,0.7-3.3c0.7-1.9,2.1-3.6,4.6-3.7c2.7-0.2,4.4,0.6,5.9,0.6
				L199.2,42.3z"/>
			<path class="st0" d="M174.6,25.7c-0.2,3.4-5.5,8.1-7.2,11.1c-0.8,1.5-1.8,4-2.1,5.5c-0.7,4.1,0.2,6.6,1.2,9
				c1.8,4.2-0.2,5.8,1.1,4.9c1.7-1.4,1.4-4.6,1.3-6.6c-0.1-1.6-0.2-3.5,0-5.4c0.5-3.6,2.7-7.6,4.6-10.3
				C175.9,30.6,175.1,27.3,174.6,25.7"/>
			<path class="st0" d="M175.7,35.5c0,0,0.6,2.7-1.8,9.7c-6.3,18.3,5.7,20,9.1,24.3c0,0,1.3-1.9-4.1-7.8c-2-2.2-3.8-7-2.2-13.8
				C178.9,37.9,175.7,35.5,175.7,35.5"/>
			<path class="st0" d="M163.9,23.5c-0.3-1.1-0.4-2-0.3-2.9c0.3-4.3,4.2-6,5.2-6.7c0,0,1.8-1.2,2-2.4c0,0,1.8,4.5-2.3,7.1
				C166.3,19.9,164.9,21.5,163.9,23.5"/>
			<path class="st0" d="M173.7,19.4c0.2,0.4,1.8,2.8-4.8,8.3c-6.6,5.5-4.5,9.3-4.5,9.3s-7-3.9,1.1-10.7c8.1-6.8,6.4-8.1,6.4-8.1
				S173.1,18.1,173.7,19.4"/>
			<path class="st0" d="M182.3,21.4c1.1,0.1,1.9,3.7,4.5,4.5c1.9,0.6,4,0.3,4.5,1.4c-0.9,0.5-0.2,2,0.7,1.8
				C192.7,27.1,193.1,19,182.3,21.4z M185.8,23c0.1-0.3,0.2-0.1,0.5-0.2c0.3-0.3,0.6-0.8,1.1-0.9c0.4-0.1,0.9-0.1,1.2,0.1
				c0.2,0.1,0.1,0.6-0.1,0.8c-0.4,0.3-1.4-0.2-1.4,0.6c0,1.3,1.8,0,2.6,0C190.3,26.5,185.1,25.6,185.8,23z"/>
		</g>
	</g>
	<g>
		<path class="st0" d="M10.2,23.8h-7l-1.3,3.7H0l5.5-15.9H8l5.5,15.9h-1.9L10.2,23.8z M3.8,22h5.8l-2.9-8.5L3.8,22z"/>
		<path class="st0" d="M26.2,27.5h-0.7l-1.1-0.9c-1,0.7-2.1,1.1-3.5,1.1c-2.2,0-4-0.9-5.3-2.4s-2-3.6-2-5.9c0-2.2,0.6-4.3,1.9-5.7
			s3.3-2.4,6-2.4c0.6,0,1.3,0,1.9,0.1c0.6,0.1,1.3,0.2,1.8,0.4v1.7l-0.1,0c-0.6-0.2-1.2-0.3-1.8-0.4c-0.6-0.1-1.2-0.1-1.7-0.1
			c-2.1,0-3.6,0.7-4.6,1.8c-1,1.1-1.5,2.7-1.5,4.4c0,1.9,0.6,3.5,1.6,4.7c1,1.2,2.4,1.9,4.1,1.9c0.9,0,1.7-0.2,2.2-0.5
			c0.5-0.3,0.9-0.6,1.1-0.8v-4h-3.4v-1.9h5.3V27.5z"/>
		<path class="st0" d="M28.8,11.6h9.6v1.7h-7.7v5.4h7.7v1.7h-7.7v5.4h7.7v1.7h-9.6V11.6z"/>
		<path class="st0" d="M42.8,15.1v12.4h-1.9V11.6h1.9l7.7,12.3V11.6h1.9v15.9h-1.9L42.8,15.1z"/>
		<path class="st0" d="M54.3,11.6H66v1.7h-4.9v14.2h-1.9V13.3h-4.9V11.6z"/>
		<path class="st0" d="M66.7,25.3L66.7,25.3c0.9,0.4,2.4,0.7,3.5,0.7c1.8,0,3.6-0.7,3.6-2.6c0-1.1-0.5-1.7-1.4-2.3
			c-0.8-0.5-3.8-1.9-4.4-2.5c-0.8-0.6-1.3-1.6-1.3-3c0-3,2.1-4.3,4.9-4.3c1,0,1.9,0.2,2.8,0.4v1.6l0,0c-0.7-0.1-1.8-0.3-2.8-0.3
			c-1.8,0-3.2,0.6-3.2,2.4c0,0.8,0.3,1.2,0.7,1.6c0.8,0.7,3.3,1.7,4.5,2.6c1.3,0.9,2,1.5,2,3.3c0,3.2-2.6,4.8-5.7,4.8
			c-1.2,0-2.3-0.2-3.2-0.7V25.3z"/>
		<path class="st0" d="M89.3,25.5v1.7c-0.5,0.2-1.2,0.3-1.8,0.4c-0.6,0.1-1.3,0.1-1.9,0.1c-2.7,0-4.7-0.9-6-2.4
			c-1.3-1.5-2-3.6-2-6.1c0-2.2,0.7-4.2,2-5.7s3.3-2.3,5.9-2.3c0.6,0,1.2,0,1.9,0.1c0.6,0.1,1.3,0.2,1.8,0.4v1.7l-0.1,0
			c-0.6-0.2-1.2-0.3-1.8-0.4s-1.2-0.1-1.7-0.1c-2.1,0-3.6,0.7-4.6,1.8c-1,1.1-1.5,2.8-1.5,4.7c0,1.9,0.5,3.5,1.5,4.6
			c1,1.1,2.6,1.8,4.6,1.8c0.5,0,1.1,0,1.7-0.1C88,25.8,88.7,25.7,89.3,25.5L89.3,25.5z"/>
		<path class="st0" d="M101.4,20.5h-7.8v7h-1.9V11.6h1.9v7h7.8v-7h1.9v15.9h-1.9V20.5z"/>
		<path class="st0" d="M115.2,23.8h-7l-1.3,3.7H105l5.5-15.9h2.5l5.5,15.9h-1.9L115.2,23.8z M108.8,22h5.8l-2.9-8.5L108.8,22z"/>
		<path class="st0" d="M120.2,27.5V11.6h3.1c2.6,0,4.6,0.4,5.9,1.2c1.3,0.8,2,2.1,2,4c0,1.4-0.4,2.5-1.1,3.4
			c-0.7,0.8-1.7,1.4-2.9,1.8s-2.5,0.5-4,0.5H122v5.1H120.2z M122,13.3v7.3h1.5c1.7,0,3.2-0.2,4.2-0.8c1-0.6,1.6-1.4,1.6-2.8
			c0-1.4-0.6-2.4-1.7-2.9c-1-0.6-2.5-0.8-4.1-0.8H122z"/>
		<path class="st0" d="M4.1,33.8v15.9H1.3V33.8H4.1z"/>
		<path class="st0" d="M9.6,39.2v10.6H6.7V33.8h2.8l6.6,10.6V33.8H19v15.9h-2.8L9.6,39.2z"/>
		<path class="st0" d="M24.5,39.2v10.6h-2.8V33.8h2.8l6.6,10.6V33.8h2.8v15.9h-2.8L24.5,39.2z"/>
		<path class="st0" d="M36.2,41.8c0-2.3,0.8-4.4,2.1-5.8s3.3-2.4,5.5-2.4c2.3,0,4.2,0.9,5.5,2.4c1.3,1.5,2.1,3.5,2.1,5.8
			s-0.8,4.4-2.1,5.8C48,49.1,46,50,43.8,50s-4.2-0.9-5.5-2.4C37,46.1,36.2,44.1,36.2,41.8z M39.1,41.7c0,1.6,0.4,3,1.2,4
			c0.8,1,2,1.6,3.6,1.6c1.5,0,2.7-0.6,3.5-1.5c0.8-1,1.2-2.3,1.2-3.9c0-1.8-0.6-3.2-1.5-4.2c-0.9-0.9-2.1-1.4-3.3-1.4
			c-1.2,0-2.4,0.5-3.2,1.4C39.6,38.6,39.1,39.9,39.1,41.7z"/>
		<path class="st0" d="M65.8,33.8L60.2,50h-3.3l-5.6-16.2h3l4.2,12.3l4.2-12.3H65.8z"/>
		<path class="st0" d="M67.2,33.8h9.5v2.7H70v3.9h6.5v2.7H70V47h6.6v2.7h-9.5V33.8z"/>
		<path class="st0" d="M79.2,49.8V33.8h4.6c1.1,0,2.2,0.1,3.2,0.5c1.1,0.3,2,0.9,2.7,1.8s1.1,2,1.1,3.5c0,1.1-0.3,2-0.8,2.8
			c-0.5,0.7-1.2,1.3-2,1.7c0.3,0.7,1,1.6,1.7,2.3c0.7,0.7,1.6,1.4,2.3,1.6v0.1L90.9,50c-0.8,0-1.6-0.4-2.3-0.9c-0.7-0.5-1.4-1.3-2-2
			c-0.6-0.8-1-1.5-1.2-2.2C84.8,45,84.3,45,83.8,45H82v4.8H79.2z M82,36.6v5.7h1.8c1.6,0,2.7-0.3,3.4-0.8c0.7-0.5,0.9-1.2,0.9-2
			c0-0.9-0.2-1.6-0.9-2.1c-0.7-0.5-1.7-0.8-3.4-0.8H82z"/>
		<path class="st0" d="M94,33.8h9.5v2.7h-6.6v3.9h6.5v2.7h-6.5V47h6.6v2.7H94V33.8z"/>
		<path class="st0" d="M108.8,39.2v10.6H106V33.8h2.8l6.6,10.6V33.8h2.8v15.9h-2.8L108.8,39.2z"/>
		<path class="st0" d="M139.6,48.1l-1.9,1.9l-1.8-1.8c-1.2,1.2-2.7,1.8-4.5,1.8c-1.4,0-2.7-0.4-3.6-1.2c-0.9-0.8-1.4-2-1.4-3.4
			c0-1.8,0.7-3.3,2.4-4.5c-0.3-0.3-0.6-0.8-0.8-1.4c-0.3-0.6-0.4-1.3-0.4-2c0-1.1,0.4-2,1-2.7c0.7-0.7,1.6-1.1,2.9-1.1
			c1,0,2,0.3,2.8,0.8c0.8,0.6,1.4,1.5,1.4,2.8c0,1.1-0.4,1.9-0.9,2.6c-0.5,0.7-1.2,1.2-1.9,1.5l2.7,2.7c0.5-1.2,0.8-2.4,1-3.5h0.1
			l2.3,1c-0.3,1.7-0.7,3.2-1.4,4.4L139.6,48.1z M130.5,42.9c-0.4,0.2-0.8,0.6-1.1,0.9c-0.3,0.4-0.5,0.9-0.5,1.5
			c0,1.3,0.8,2.1,2.4,2.1c1.1,0,1.9-0.4,2.6-1.2L130.5,42.9z M130,37.5c0,0.7,0.3,1.3,1,2.1c0.3-0.1,0.8-0.3,1.2-0.7
			c0.4-0.3,0.7-0.8,0.7-1.4c0-0.5-0.2-0.9-0.5-1.1s-0.7-0.3-1.1-0.3c-0.6,0-0.9,0.2-1.1,0.5C130.1,36.9,130,37.2,130,37.5z"/>
		<path class="st0" d="M0.4,64c0-2.3,0.8-4.4,2.1-5.8s3.3-2.4,5.5-2.4s4.2,0.9,5.5,2.4c1.3,1.5,2.1,3.5,2.1,5.8
			c0,2.3-0.8,4.4-2.1,5.8s-3.3,2.4-5.5,2.4s-4.2-0.9-5.5-2.4C1.2,68.4,0.4,66.4,0.4,64z M3.2,63.9c0,1.6,0.4,3,1.2,4
			c0.8,1,2,1.6,3.6,1.6c1.5,0,2.7-0.6,3.5-1.5c0.8-1,1.2-2.3,1.2-3.9c0-1.8-0.6-3.2-1.5-4.2c-0.9-0.9-2.1-1.4-3.3-1.4
			c-1.2,0-2.4,0.5-3.2,1.4C3.8,60.8,3.2,62.2,3.2,63.9z"/>
		<path class="st0" d="M20.8,61.4V72h-2.8V56.1h2.8l6.6,10.6V56.1h2.8V72h-2.8L20.8,61.4z"/>
		<path class="st0" d="M32.8,72V56.1h5.3c2.6,0,4.7,0.9,6.2,2.3s2.3,3.4,2.3,5.6c0,2-0.7,4-2,5.5C43.2,71,41.1,72,38.3,72H32.8z
			 M35.7,58.8v10.5h2.1c2.2,0,3.7-0.7,4.6-1.8c0.9-1,1.2-2.3,1.2-3.5c0-1.3-0.5-2.6-1.5-3.6c-1-1-2.5-1.6-4.6-1.6H35.7z"/>
		<path class="st0" d="M48.9,56.1h9.5v2.7h-6.6v3.9h6.5v2.7h-6.5v3.8h6.6V72h-9.5V56.1z"/>
		<path class="st0" d="M60.9,72V56.1h4.6c1.1,0,2.2,0.1,3.2,0.5c1.1,0.3,2,0.9,2.7,1.8s1.1,2,1.1,3.5c0,1.1-0.3,2-0.8,2.8
			c-0.5,0.7-1.2,1.3-2,1.7c0.3,0.7,1,1.6,1.7,2.3c0.7,0.7,1.6,1.4,2.3,1.6v0.1l-1.3,1.9c-0.8,0-1.6-0.4-2.3-0.9
			c-0.7-0.5-1.4-1.3-2-2c-0.6-0.8-1-1.5-1.2-2.2c-0.5,0.1-1.1,0.1-1.6,0.1h-1.7V72H60.9z M63.7,58.8v5.7h1.8c1.6,0,2.7-0.3,3.4-0.8
			c0.7-0.5,0.9-1.2,0.9-2c0-0.9-0.2-1.6-0.9-2.1c-0.7-0.5-1.7-0.8-3.4-0.8H63.7z"/>
		<path class="st0" d="M78.5,61.4V72h-2.8V56.1h2.8l6.6,10.6V56.1h2.8V72h-2.8L78.5,61.4z"/>
		<path class="st0" d="M90.6,56.1h9.5v2.7h-6.6v3.9h6.5v2.7h-6.5v3.8h6.6V72h-9.5V56.1z"/>
		<path class="st0" d="M116.1,72h-2.8v-9.9l-2.6,4.8H108l-2.6-4.8V72h-2.8V56.1h2.8l3.9,7.4l3.9-7.4h2.8V72z"/>
		<path class="st0" d="M118.7,56.1h9.5v2.7h-6.6v3.9h6.5v2.7h-6.5v3.8h6.6V72h-9.5V56.1z"/>
		<path class="st0" d="M133.5,61.4V72h-2.8V56.1h2.8l6.6,10.6V56.1h2.8V72h-2.8L133.5,61.4z"/>
	</g>
</g>
</svg>
